<?xml version="1.0" encoding="UTF-8" standalone="no"?>
<svg width="753px" height="608px" viewBox="0 0 753 608" version="1.1" xmlns="http://www.w3.org/2000/svg" xmlns:xlink="http://www.w3.org/1999/xlink" xmlns:sketch="http://www.bohemiancoding.com/sketch/ns">
    <!-- Generator: Sketch 3.2.2 (9983) - http://www.bohemiancoding.com/sketch -->
    <title>snfed</title>
    <desc>Created with Sketch.</desc>
    <defs>
        <linearGradient x1="50%" y1="0%" x2="50%" y2="100%" id="linearGradient-1">
            <stop stop-color="#1799D8" offset="0%"></stop>
            <stop stop-color="#9F60B2" offset="100%"></stop>
        </linearGradient>
    </defs>
    <g id="Page-1" stroke="none" stroke-width="1" fill="none" fill-rule="evenodd" sketch:type="MSPage">
        <g id="logo" sketch:type="MSLayerGroup">
            <path d="M68.579,518.667 L68.579,541 L46.149,541 L46.149,518.667 L68.579,518.667 L68.579,518.667 Z M68.579,518.667 L68.579,496.334 L158.297,496.334 L158.297,518.667 L68.579,518.667 L68.579,518.667 Z M135.868,541 L135.868,563.333 L68.579,563.333 L68.579,541 L135.868,541 L135.868,541 Z M158.297,585.667 L135.867,585.667 L135.867,563.334 L158.297,563.334 L158.297,585.667 L158.297,585.667 Z M46.149,608 L46.149,585.667 L135.867,585.667 L135.867,608 L46.149,608 L46.149,608 Z" id="Shape" fill="#A2A2A2" sketch:type="MSShapeGroup"></path>
            <path d="M229.623,518.667 L229.623,541 L207.193,541 L207.193,608 L184.764,608 L184.764,496.333 L207.193,496.333 L207.193,518.666 L229.623,518.666 L229.623,518.667 Z M296.912,496.333 L296.912,608 L274.483,608 L274.483,585.667 L252.053,585.667 L252.053,563.334 L274.483,563.334 L274.483,496.334 L296.912,496.334 L296.912,496.333 Z M252.053,541 L252.053,563.333 L229.623,563.333 L229.623,541 L252.053,541 L252.053,541 Z" id="Shape" fill="#A2A2A2" sketch:type="MSShapeGroup"></path>
            <path d="M345.808,518.667 L345.808,496.334 L435.526,496.334 L435.526,518.667 L345.808,518.667 L345.808,518.667 Z M345.808,608 L323.378,608 L323.378,518.667 L345.808,518.667 L345.808,541 L435.526,541 L435.526,563.333 L345.808,563.333 L345.808,608 L345.808,608 Z" id="Shape" fill="#A2A2A2" sketch:type="MSShapeGroup"></path>
            <path d="M484.423,518.667 L484.423,496.334 L574.141,496.334 L574.141,518.667 L484.423,518.667 L484.423,518.667 Z M484.423,585.667 L461.993,585.667 L461.993,518.667 L484.423,518.667 L484.423,541 L574.141,541 L574.141,563.333 L484.423,563.333 L484.423,585.667 L484.423,585.667 Z M484.423,608 L484.423,585.667 L574.141,585.667 L574.141,608 L484.423,608 L484.423,608 Z" id="Shape" fill="#A2A2A2" sketch:type="MSShapeGroup"></path>
            <path d="M712.755,518.667 L712.755,585.667 L690.325,585.667 L690.325,518.667 L712.755,518.667 L712.755,518.667 Z M690.326,585.667 L690.326,608 L600.608,608 L600.608,496.333 L690.326,496.333 L690.326,518.666 L623.037,518.666 L623.037,585.666 L690.326,585.666 L690.326,585.667 Z" id="Shape" fill="#A2A2A2" sketch:type="MSShapeGroup"></path>
            <path d="M482.108,249.789 L334.89,150.21 L334.89,61.652 L424.665,61.652 L424.665,171.571 L498.103,218.596 L498.117,44.441 C498.117,14.821 483.256,0.006 453.543,0.006 L305.697,0.006 C276.191,0.006 261.437,15.026 261.437,45.067 L261.437,153.964 C261.437,169.82 266.773,182.861 277.446,193.08 L424.664,293.285 L424.664,389.353 L334.89,389.353 L334.89,271.923 L261.445,218.595 L261.438,406.25 C261.438,436.085 276.191,450.999 305.698,450.999 L453.544,450.999 C483.257,450.999 498.118,436.086 498.118,406.25 L498.118,289.531 C498.117,273.053 492.78,259.803 482.108,249.789 Z" id="Shape" fill="url(#linearGradient-1)" sketch:type="MSShapeGroup"></path>
            <path d="M0.774,223.111 L0.774,228.509 L225.644,384.546 L225.644,270.411 L116.678,194.833 L225.644,128.223 L225.644,85.27 L0.774,223.111 L0.774,223.111 Z" id="Shape" fill="url(#linearGradient-1)" sketch:type="MSShapeGroup"></path>
            <path d="M752.226,246.705 L752.226,241.306 L527.355,85.27 L527.355,199.406 L636.321,274.984 L527.355,341.595 L527.355,384.548 L752.226,246.705 L752.226,246.705 Z" id="Shape" fill="url(#linearGradient-1)" sketch:type="MSShapeGroup"></path>
        </g>
    </g>
</svg>